<?xml version="1.0" encoding="UTF-8"?>
<svg width="16px" height="16px" viewBox="0 0 16 16" version="1.1" xmlns="http://www.w3.org/2000/svg" xmlns:xlink="http://www.w3.org/1999/xlink">
    <title>IHG </title>
    <g id="页面-1" stroke="none" stroke-width="1" fill="none" fill-rule="evenodd" opacity="0.653708783">
        <g id="更多" transform="translate(-40.000000, -198.000000)" fill="#000000" fill-rule="nonzero" stroke="#000000" stroke-width="0.2">
            <g id="编组">
                <g id="左导航" transform="translate(0.000000, 65.000000)">
                    <g id="编组" transform="translate(40.000000, 133.000000)">
                        <path d="M13.5910773,1 C14.3259743,1 14.9294568,1.56265488 14.9942422,2.28068206 L15,2.4089227 L15,10.8279194 C15,11.5628164 14.4373451,12.1662989 13.7193179,12.2310843 L13.5910773,12.2368421 L12.236,12.236 L12.2368421,13.5910773 C12.2368421,14.3234314 11.6780743,14.9252789 10.963608,14.9935503 L10.8279194,15 L2.4089227,15 C1.63079647,15 1,14.3692035 1,13.5910773 L1,13.5910773 L1,5.17208059 C1,4.39395437 1.63079647,3.76315789 2.4089227,3.76315789 L2.4089227,3.76315789 L3.763,3.763 L3.76315789,2.4089227 C3.76315789,1.67402571 4.32581277,1.07054322 5.04383995,1.00575781 L5.17208059,1 L13.5910773,1 Z M10.8279194,4.63815789 L2.4089227,4.63815789 C2.11404563,4.63815789 1.875,4.87720353 1.875,5.17208059 L1.875,5.17208059 L1.875,13.5910773 C1.875,13.8859544 2.11404563,14.125 2.4089227,14.125 L2.4089227,14.125 L10.8279194,14.125 C11.1227965,14.125 11.3618421,13.8859544 11.3618421,13.5910773 L11.3618421,13.5910773 L11.3618421,5.17208059 C11.3618421,4.87720353 11.1227965,4.63815789 10.8279194,4.63815789 L10.8279194,4.63815789 Z M13.5910773,1.875 L5.17208059,1.875 C4.90669123,1.875 4.68652534,2.06862696 4.64514605,2.32231773 L4.63815789,2.4089227 L4.638,3.763 L10.8279194,3.76315789 C11.5602735,3.76315789 12.162121,4.32192571 12.2303925,5.03639198 L12.2368421,5.17208059 L12.236,11.361 L13.5910773,11.3618421 C13.8564667,11.3618421 14.0766326,11.1682151 14.1180118,10.9145244 L14.125,10.8279194 L14.125,2.4089227 C14.125,2.14353334 13.931373,1.92336744 13.6776823,1.88198815 L13.5910773,1.875 Z" id="形状结合"></path>
                    </g>
                </g>
            </g>
        </g>
    </g>
</svg>