<?xml version="1.0" encoding="UTF-8"?>
<svg width="16px" height="16px" viewBox="0 0 16 16" version="1.1" xmlns="http://www.w3.org/2000/svg" xmlns:xlink="http://www.w3.org/1999/xlink">
    <title>package</title>
    <g id="页面-1" stroke="none" stroke-width="1" fill="none" fill-rule="evenodd" opacity="0.645624138">
        <g id="更多" transform="translate(-40.000000, -100.000000)" fill="#000000" fill-rule="nonzero">
            <g id="编组">
                <g id="左导航" transform="translate(0.000000, 65.000000)">
                    <g id="编组-4" transform="translate(40.000000, 35.000000)">
                        <path d="M6.39587781,2.08333329 C6.94005643,2.08333329 7.45722001,2.32046014 7.8121191,2.7329853 L11.9744393,2.7329853 C13.5114999,2.73301966 14.770046,3.95501532 14.8153674,5.49140759 L14.8166667,5.57521269 L14.8166667,5.84806652 L14.8127688,5.84806652 C14.8153674,5.86982985 14.8166667,5.89191803 14.8166667,5.91465584 L14.8166667,12.0717324 C14.8166667,13.6414512 13.5441581,14.9139598 11.9744393,14.9139598 L3.65889404,14.9139598 C2.08917521,14.9139598 0.816666672,13.6414512 0.816666672,12.0717324 L0.816666672,4.92556071 C0.816666672,3.35584188 2.08917521,2.08333329 3.65889404,2.08333329 L6.39587781,2.08333329 Z M6.39587781,3.22022428 L3.65889404,3.22022428 C2.71706274,3.22022428 1.95355761,3.98372941 1.95355761,4.92556071 L1.95355761,12.0717324 C1.95355761,13.0137278 2.71689868,13.7770688 3.65889404,13.7770688 L11.9744393,13.7770688 C12.9164347,13.7770688 13.6797757,13.0137278 13.6797757,12.0717324 L13.6797757,6.48277649 L9.38557619,6.48277649 C8.62261065,6.48270534 7.93639328,6.01858268 7.65230472,5.31047951 L7.62436969,5.236744 L7.08515855,3.70778808 C6.98199936,3.41557164 6.70576854,3.22022428 6.39587781,3.22022428 L6.39587781,3.22022428 Z M6.84218871,10.528809 C7.14692811,10.528946 7.39734773,10.7693657 7.40989646,11.0738466 C7.42244518,11.3783276 7.1926583,11.6385383 6.88896365,11.663751 L6.84218871,11.6656999 L4.24358082,11.6656999 C3.93884142,11.6655629 3.6884218,11.4251432 3.67587307,11.1206623 C3.66332435,10.8161813 3.89311123,10.5559706 4.19680588,10.5307579 L4.24358082,10.528809 L6.84218871,10.528809 Z M11.9744393,3.86987626 L8.34775716,3.86987626 L8.69662027,4.85832173 C8.79301365,5.13190278 9.04207521,5.32258656 9.33133024,5.34426141 L9.38557619,5.34621037 L13.6645089,5.34588553 C13.5532727,4.52670286 12.8706009,3.90522102 12.0446017,3.87117556 L11.9744393,3.86987626 L11.9744393,3.86987626 Z" id="形状"></path>
                    </g>
                </g>
            </g>
        </g>
    </g>
</svg>