<?xml version="1.0" encoding="UTF-8"?>
<svg width="16px" height="16px" viewBox="0 0 16 16" version="1.1" xmlns="http://www.w3.org/2000/svg" xmlns:xlink="http://www.w3.org/1999/xlink">
    <title>people</title>
    <g id="页面-1" stroke="none" stroke-width="1" fill="none" fill-rule="evenodd" stroke-linecap="round" stroke-linejoin="round" stroke-opacity="0.656333657">
        <g id="更多" transform="translate(-40.000000, -245.000000)" stroke="#000000">
            <g id="编组">
                <g id="左导航" transform="translate(0.000000, 65.000000)">
                    <g id="编组" transform="translate(40.000000, 180.000000)">
                        <path d="M8,6.66666667 C9.28866667,6.66666667 10.3333333,5.622 10.3333333,4.33333333 C10.3333333,3.04467 9.28866667,2 8,2 C6.71133333,2 5.66666667,3.04467 5.66666667,4.33333333 C5.66666667,5.622 6.71133333,6.66666667 8,6.66666667 Z" id="路径"></path>
                        <path d="M2,13.6 L2,14 L14,14 L14,13.6 C14,12.1065333 14,11.3598 13.7093667,10.7893667 C13.4537,10.2876 13.0457333,9.87963333 12.5439667,9.62396667 C11.9735333,9.33333333 11.2268,9.33333333 9.73333333,9.33333333 L6.26666667,9.33333333 C4.7732,9.33333333 4.02646667,9.33333333 3.45603333,9.62396667 C2.95426,9.87963333 2.54631,10.2876 2.29065,10.7893667 C2,11.3598 2,12.1065333 2,13.6 Z" id="路径"></path>
                    </g>
                </g>
            </g>
        </g>
    </g>
</svg>