<?xml version="1.0" encoding="UTF-8"?>
<svg width="16px" height="16px" viewBox="0 0 16 16" version="1.1" xmlns="http://www.w3.org/2000/svg" xmlns:xlink="http://www.w3.org/1999/xlink">
    <title>Prof ile</title>
    <g id="页面-1" stroke="none" stroke-width="1" fill="none" fill-rule="evenodd" opacity="0.649258961">
        <g id="更多" transform="translate(-40.000000, -149.000000)" fill="#000000" fill-rule="nonzero">
            <g id="编组">
                <g id="左导航" transform="translate(0.000000, 65.000000)">
                    <g id="编组-2" transform="translate(40.000000, 84.000000)">
                        <path d="M13.6122449,1 C14.2214286,1 14.7142857,1.49285714 14.7142857,2.10204082 L14.7142857,2.10204082 L14.7142857,13.6122449 C14.7142857,14.2214286 14.2214286,14.7142857 13.6122449,14.7142857 L13.6122449,14.7142857 L2.10204082,14.7142857 C1.49285714,14.7142857 1,14.2214286 1,13.6122449 L1,13.6122449 L1,2.10204082 C1,1.49285714 1.49285714,1 2.10204082,1 L2.10204082,1 Z M13.6122449,2.10204082 L2.10204082,2.10204082 L2.10204082,13.6122449 L13.6122449,13.6122449 L13.6122449,2.10204082 Z M11.2244898,10.244898 C11.5290816,10.244898 11.7755102,10.4913265 11.7755102,10.7959184 C11.7755102,11.1005102 11.5290816,11.3469388 11.2244898,11.3469388 L11.2244898,11.3469388 L6.44897959,11.3469388 C6.14438776,11.3469388 5.89795918,11.1005102 5.89795918,10.7959184 C5.89795918,10.4913265 6.14438776,10.244898 6.44897959,10.244898 L6.44897959,10.244898 Z M4.48979592,10.244898 C4.79411609,10.244898 5.04081633,10.4915982 5.04081633,10.7959184 C5.04081633,11.1002385 4.79411609,11.3469388 4.48979592,11.3469388 C4.18547575,11.3469388 3.93877551,11.1002385 3.93877551,10.7959184 C3.93877551,10.4915982 4.18547575,10.244898 4.48979592,10.244898 Z M11.2244898,7.30612245 C11.5290816,7.30612245 11.7755102,7.55255102 11.7755102,7.85714286 C11.7755102,8.16173469 11.5290816,8.40816327 11.2244898,8.40816327 L11.2244898,8.40816327 L6.44897959,8.40816327 C6.14438776,8.40816327 5.89795918,8.16173469 5.89795918,7.85714286 C5.89795918,7.55255102 6.14438776,7.30612245 6.44897959,7.30612245 L6.44897959,7.30612245 Z M4.48979592,7.30612245 C4.79411609,7.30612245 5.04081633,7.55282269 5.04081633,7.85714286 C5.04081633,8.16146303 4.79411609,8.40816327 4.48979592,8.40816327 C4.18547575,8.40816327 3.93877551,8.16146303 3.93877551,7.85714286 C3.93877551,7.55282269 4.18547575,7.30612245 4.48979592,7.30612245 Z M11.2244898,4.36734694 C11.5290816,4.36734694 11.7755102,4.61377551 11.7755102,4.91836735 C11.7755102,5.22295918 11.5290816,5.46938776 11.2244898,5.46938776 L11.2244898,5.46938776 L6.44897959,5.46938776 C6.14438776,5.46938776 5.89795918,5.22295918 5.89795918,4.91836735 C5.89795918,4.61377551 6.14438776,4.36734694 6.44897959,4.36734694 L6.44897959,4.36734694 Z M4.48979592,4.36734694 C4.79411609,4.36734694 5.04081633,4.61404718 5.04081633,4.91836735 C5.04081633,5.22268752 4.79411609,5.46938776 4.48979592,5.46938776 C4.18547575,5.46938776 3.93877551,5.22268752 3.93877551,4.91836735 C3.93877551,4.61404718 4.18547575,4.36734694 4.48979592,4.36734694 Z" id="形状结合"></path>
                    </g>
                </g>
            </g>
        </g>
    </g>
</svg>